<?xml version="1.0" encoding="UTF-8"?>
<svg id="Layer_1" data-name="Layer 1" xmlns="http://www.w3.org/2000/svg" viewBox="0 0 800 205">
  <defs>
    <style>
      .cls-1 {
        fill: #fff;
      }
    </style>
  </defs>
  <g>
    <path class="cls-1" d="M0,204.93V48.28h39.08v23.32c8.24-13.78,27.25-25.23,47.32-25.23,36.76,0,61.69,24.38,61.69,56.81s-25.35,56.81-63.38,56.81c-19.01,0-37.39-12.93-45.63-25.44v70.38H0ZM108.8,104.45v-2.76c0-18.23-13.1-31.16-29.15-31.16-16.9,0-34.01,14.41-34.01,32.65s17.11,32.64,34.01,32.64,29.15-12.93,29.15-31.37Z"/>
    <path class="cls-1" d="M156.54,48.28h38.87v38.37c2.54-11.23,19.01-38.58,50.7-38.58h9.08v27.77h-16.9c-30.42,0-42.89,21.41-42.89,55.33v26.5h-38.87V48.28Z"/>
    <path class="cls-1" d="M326.82,159.99c-42.46,0-72.04-23.95-72.04-56.81s29.79-56.81,72.25-56.81,72.04,23.74,72.04,56.81c0,1.7,0,3.6-.21,5.3h-104.36c1.69,17.17,14.15,27.35,32.53,27.35,14.79,0,25.77-6.78,30.21-18.87h40.14c-7.18,25.65-34.43,43.03-70.56,43.03ZM327.03,70.53c-13.1,0-23.24,5.3-28.52,14.41h56.83c-5.49-9.33-15.42-14.41-28.31-14.41Z"/>
    <path class="cls-1" d="M464.35,135.61c13.94.42,22.61-2.54,22.82-9.33.21-5.3-5.28-7.84-28.73-12.3-23.45-4.66-55.77-11.23-54.93-35.19.63-19.93,23.66-33.92,60-32.65,36.97,1.27,55.14,17.17,56.2,40.91h-28.52c-.63-11.23-12.68-16.32-28.52-16.75-12.46-.42-20.07,1.91-20.28,8.9-.21,5.3,4.65,7.84,29.15,12.72,23.24,4.66,55.35,10.81,54.51,34.55-.63,20.14-24.72,34.55-62.53,33.28-38.45-1.48-58.52-17.81-57.67-41.34h25.77c-.85,10.6,15.42,16.54,32.75,17.17Z"/>
    <path class="cls-1" d="M550.97,75.83h-24.93v-27.56c20.49,0,32.32-3.82,32.32-35.4v-4.45h38.87v4.45c0,18.87-14.15,30.1-27.89,35.4h56.62v27.56h-36.13v47.06c0,8.48,4.44,12.93,12.25,12.93h12.46v21.83h-12.89c-30.63,0-50.49-9.96-50.7-34.55v-47.27Z"/>
    <path class="cls-1" d="M624.28,102.97c0-32.86,29.79-56.81,72.25-56.81s72.04,23.74,72.04,56.81-30,56.81-72.25,56.81-72.04-23.95-72.04-56.81ZM728.85,104.24v-2.76c0-19.5-13.1-31.16-32.32-31.16s-32.75,11.87-32.75,31.16v2.76c0,19.5,12.89,31.37,32.75,31.37s32.32-11.87,32.32-31.37Z"/>
  </g>
  <g>
    <g>
      <g>
        <path class="cls-1" d="M633.78,202.82c-.86,1.02-1.84,1.53-2.94,1.53-.94,0-1.84-.55-2.7-1.65-.78-1.1-1.18-2.28-1.18-3.54,0-3.77,1.29-8.34,3.88-13.68,2.74,5.66,4.11,10.22,4.11,13.68,0,1.42-.39,2.63-1.18,3.66Z"/>
        <path class="cls-1" d="M630.84,205c-1.14,0-2.22-.64-3.21-1.9-.88-1.24-1.31-2.55-1.31-3.94,0-3.86,1.33-8.56,3.94-13.97l.58-1.2.58,1.2c2.77,5.72,4.18,10.42,4.18,13.97,0,1.56-.44,2.92-1.31,4.05l-.02.02c-.99,1.17-2.14,1.76-3.43,1.76ZM630.85,186.99c-2.15,4.71-3.24,8.8-3.24,12.17,0,1.13.35,2.16,1.06,3.16.71.91,1.45,1.38,2.18,1.38.9,0,1.7-.42,2.44-1.29.69-.91,1.03-1.97,1.03-3.25,0-3.1-1.17-7.19-3.47-12.17Z"/>
      </g>
      <g>
        <path class="cls-1" d="M608.98,183.59c-1.02-.86-1.53-1.85-1.53-2.95,0-.94.55-1.85,1.65-2.71,1.1-.78,2.27-1.18,3.53-1.18,3.76,0,8.31,1.3,13.64,3.89-5.64,2.75-10.19,4.13-13.64,4.13-1.41,0-2.63-.39-3.64-1.18Z"/>
        <path class="cls-1" d="M612.62,185.42c-1.55,0-2.91-.44-4.04-1.31l-.02-.02c-1.16-.99-1.76-2.15-1.76-3.44,0-1.15.64-2.23,1.89-3.22,1.23-.88,2.54-1.32,3.93-1.32,3.84,0,8.53,1.33,13.92,3.96l1.19.58-1.19.58c-5.7,2.78-10.39,4.19-13.92,4.19ZM609.38,183.09c.91.7,1.97,1.04,3.24,1.04,3.09,0,7.16-1.17,12.13-3.48-4.7-2.16-8.77-3.25-12.13-3.25-1.12,0-2.15.35-3.15,1.06-.9.71-1.38,1.46-1.38,2.19,0,.9.42,1.71,1.29,2.45Z"/>
      </g>
      <g>
        <path class="cls-1" d="M628.14,158.7c.86-1.02,1.84-1.53,2.94-1.53.94,0,1.84.55,2.7,1.65.78,1.1,1.18,2.28,1.18,3.54,0,3.77-1.29,8.34-3.88,13.68-2.74-5.66-4.11-10.22-4.11-13.68,0-1.42.39-2.63,1.18-3.66Z"/>
        <path class="cls-1" d="M631.08,177.52l-.58-1.2c-2.77-5.72-4.18-10.42-4.18-13.97,0-1.56.44-2.92,1.31-4.05l.02-.02c.99-1.17,2.14-1.76,3.43-1.76,1.14,0,2.22.64,3.21,1.9.88,1.24,1.31,2.55,1.31,3.94,0,3.86-1.33,8.56-3.94,13.97l-.58,1.2ZM628.64,159.11c-.69.91-1.03,1.97-1.03,3.25,0,3.1,1.17,7.19,3.47,12.17,2.15-4.71,3.24-8.8,3.24-12.17,0-1.13-.35-2.16-1.06-3.16-.71-.91-1.45-1.38-2.18-1.38-.9,0-1.7.42-2.44,1.29Z"/>
      </g>
      <g>
        <path class="cls-1" d="M652.95,177.93c1.02.86,1.53,1.85,1.53,2.95,0,.94-.55,1.85-1.65,2.71-1.1.78-2.27,1.18-3.53,1.18-3.76,0-8.31-1.3-13.64-3.89,5.64-2.75,10.19-4.13,13.64-4.13,1.41,0,2.63.39,3.64,1.18Z"/>
        <path class="cls-1" d="M649.3,185.42c-3.84,0-8.53-1.33-13.92-3.96l-1.19-.58,1.19-.58c5.7-2.78,10.39-4.19,13.92-4.19,1.55,0,2.91.44,4.04,1.31l.02.02c1.17.99,1.76,2.15,1.76,3.44,0,1.15-.64,2.23-1.89,3.22-1.23.88-2.55,1.32-3.93,1.32ZM637.17,180.87c4.7,2.16,8.77,3.25,12.13,3.25,1.12,0,2.15-.35,3.15-1.06.9-.72,1.38-1.46,1.38-2.19,0-.9-.42-1.71-1.29-2.45-.91-.7-1.97-1.04-3.24-1.04-3.09,0-7.16,1.17-12.13,3.48Z"/>
      </g>
    </g>
    <g>
      <g>
        <path class="cls-1" d="M788.93,68.6c-.43.51-.93.77-1.48.77-.47,0-.93-.28-1.36-.83-.39-.56-.59-1.15-.59-1.78,0-1.9.65-4.2,1.95-6.89,1.38,2.85,2.07,5.15,2.07,6.89,0,.71-.2,1.33-.59,1.84Z"/>
        <path class="cls-1" d="M787.45,70.02c-.68,0-1.31-.36-1.87-1.08-.49-.69-.73-1.42-.73-2.18,0-1.99.68-4.41,2.02-7.18l.58-1.2.58,1.2c1.44,2.97,2.14,5.32,2.14,7.18,0,.86-.24,1.61-.73,2.24l-.02.02c-.56.66-1.22,1-1.97,1ZM787.45,61.41c-.87,2.06-1.31,3.85-1.31,5.35,0,.5.15.96.47,1.41.67.85,1.28.65,1.82.03.3-.4.45-.87.45-1.44,0-1.38-.48-3.17-1.43-5.35Z"/>
      </g>
      <g>
        <path class="cls-1" d="M776.43,58.91c-.51-.44-.77-.93-.77-1.49,0-.48.28-.93.83-1.37.55-.4,1.15-.59,1.78-.59,1.9,0,4.19.65,6.87,1.96-2.84,1.39-5.13,2.08-6.87,2.08-.71,0-1.32-.2-1.84-.59Z"/>
        <path class="cls-1" d="M778.27,60.15c-.85,0-1.6-.25-2.23-.73l-.02-.02c-.66-.56-1-1.23-1-1.98,0-.68.36-1.31,1.07-1.87.69-.49,1.41-.73,2.18-.73,1.98,0,4.39.68,7.15,2.03l1.19.58-1.19.58c-2.96,1.44-5.3,2.15-7.15,2.15ZM776.83,58.41c.4.3.87.45,1.43.45,1.37,0,3.16-.48,5.33-1.43-2.05-.88-3.84-1.32-5.33-1.32-.5,0-.96.16-1.4.47-.36.29-.56.58-.56.84,0,.23.06.58.53.98Z"/>
      </g>
      <g>
        <path class="cls-1" d="M786.09,46.37c.43-.51.93-.77,1.48-.77.47,0,.93.28,1.36.83.39.56.59,1.15.59,1.78,0,1.9-.65,4.2-1.95,6.89-1.38-2.85-2.07-5.15-2.07-6.89,0-.71.2-1.33.59-1.84Z"/>
        <path class="cls-1" d="M787.57,56.59l-.58-1.2c-1.44-2.97-2.14-5.32-2.14-7.18,0-.86.24-1.61.73-2.24l.02-.02c1.07-1.27,2.66-1.43,3.84.08.49.69.73,1.42.73,2.18,0,1.99-.68,4.41-2.02,7.18l-.58,1.2ZM786.59,46.78c-.3.4-.45.87-.45,1.44,0,1.38.48,3.17,1.43,5.35.87-2.06,1.31-3.85,1.31-5.35,0-.5-.15-.96-.47-1.41-.67-.85-1.28-.65-1.82-.03Z"/>
      </g>
      <g>
        <path class="cls-1" d="M798.59,56.06c.51.44.77.93.77,1.49,0,.48-.28.93-.83,1.37-.55.4-1.15.59-1.78.59-1.9,0-4.19-.65-6.87-1.96,2.84-1.39,5.13-2.08,6.87-2.08.71,0,1.32.2,1.84.59Z"/>
        <path class="cls-1" d="M796.75,60.15c-1.99,0-4.39-.68-7.15-2.03l-1.19-.58,1.19-.58c2.96-1.44,5.3-2.15,7.15-2.15.85,0,1.6.25,2.23.73l.02.02c.66.56,1,1.23,1,1.98,0,.68-.36,1.31-1.07,1.88-.69.49-1.41.73-2.18.73ZM791.42,57.54c2.05.88,3.84,1.32,5.33,1.32.5,0,.96-.16,1.4-.47.36-.29.56-.58.56-.84,0-.35-.17-.68-.53-.98-.4-.3-.87-.45-1.43-.45-1.37,0-3.16.48-5.33,1.43Z"/>
      </g>
    </g>
    <g>
      <g>
        <path class="cls-1" d="M763.67,53.85c-1,1.19-2.15,1.79-3.42,1.79-1.1,0-2.15-.64-3.15-1.92-.91-1.28-1.37-2.66-1.37-4.12,0-4.4,1.51-9.72,4.52-15.95,3.2,6.6,4.79,11.91,4.79,15.95,0,1.65-.46,3.07-1.37,4.26Z"/>
        <path class="cls-1" d="M760.25,56.28c-1.3,0-2.53-.73-3.66-2.17-1.01-1.42-1.51-2.93-1.51-4.52,0-4.48,1.54-9.94,4.59-16.23l.58-1.2.58,1.2c3.22,6.65,4.86,12.11,4.86,16.23,0,1.79-.51,3.36-1.5,4.66l-.02.02c-1.13,1.34-2.45,2.02-3.92,2.02ZM760.25,35.15c-2.57,5.6-3.88,10.45-3.88,14.44,0,1.32.42,2.58,1.25,3.75.85,1.09,1.74,1.65,2.63,1.65,1.09,0,2.04-.51,2.92-1.55.83-1.08,1.23-2.34,1.23-3.86,0-3.67-1.39-8.52-4.15-14.44Z"/>
      </g>
      <g>
        <path class="cls-1" d="M734.76,31.44c-1.19-1.01-1.78-2.15-1.78-3.44,0-1.1.64-2.15,1.92-3.16,1.28-.91,2.65-1.37,4.11-1.37,4.38,0,9.68,1.51,15.89,4.54-6.58,3.21-11.87,4.81-15.89,4.81-1.64,0-3.06-.46-4.25-1.37Z"/>
        <path class="cls-1" d="M739.01,33.46c-1.78,0-3.34-.51-4.64-1.51l-.02-.02c-1.33-1.13-2.01-2.45-2.01-3.93,0-1.3.73-2.54,2.16-3.67,1.41-1.01,2.92-1.51,4.51-1.51,4.46,0,9.9,1.55,16.17,4.6l1.19.58-1.19.58c-6.63,3.24-12.07,4.88-16.17,4.88ZM735.17,30.94c1.08.83,2.33,1.23,3.84,1.23,3.66,0,8.49-1.4,14.39-4.16-5.58-2.58-10.41-3.89-14.39-3.89-1.31,0-2.57.42-3.74,1.25-1.08.86-1.65,1.75-1.65,2.64,0,1.09.5,2.05,1.54,2.93Z"/>
      </g>
      <g>
        <path class="cls-1" d="M757.09,2.43c1-1.19,2.15-1.79,3.42-1.79,1.1,0,2.15.64,3.15,1.92.91,1.28,1.37,2.66,1.37,4.12,0,4.4-1.51,9.72-4.52,15.95-3.2-6.6-4.79-11.91-4.79-15.95,0-1.65.46-3.07,1.37-4.26Z"/>
        <path class="cls-1" d="M760.52,24.12l-.58-1.2c-3.22-6.65-4.86-12.11-4.86-16.23,0-1.79.51-3.36,1.5-4.66l.02-.02c1.13-1.34,2.45-2.02,3.92-2.02,1.3,0,2.53.73,3.66,2.17,1.01,1.42,1.51,2.93,1.51,4.52,0,4.48-1.54,9.94-4.59,16.23l-.58,1.2ZM757.59,2.84c-.83,1.08-1.23,2.34-1.23,3.86,0,3.67,1.39,8.52,4.15,14.44,2.57-5.6,3.88-10.45,3.88-14.44,0-1.32-.42-2.58-1.25-3.75-.85-1.09-1.74-1.65-2.63-1.65-1.09,0-2.04.51-2.92,1.55Z"/>
      </g>
      <g>
        <path class="cls-1" d="M786,24.84c1.19,1.01,1.78,2.15,1.78,3.44,0,1.1-.64,2.15-1.92,3.16-1.28.91-2.65,1.37-4.11,1.37-4.38,0-9.68-1.51-15.89-4.54,6.58-3.21,11.87-4.81,15.89-4.81,1.64,0,3.06.46,4.25,1.37Z"/>
        <path class="cls-1" d="M781.75,33.46c-4.46,0-9.9-1.55-16.17-4.6l-1.19-.58,1.19-.58c6.63-3.24,12.07-4.88,16.17-4.88,1.78,0,3.34.51,4.64,1.51l.02.02c1.33,1.13,2.01,2.45,2.01,3.93,0,1.3-.73,2.54-2.16,3.67-1.41,1.01-2.92,1.51-4.51,1.51ZM767.36,28.28c5.58,2.58,10.41,3.89,14.39,3.89,1.31,0,2.57-.42,3.74-1.25,1.08-.86,1.65-1.75,1.65-2.64,0-1.09-.5-2.05-1.54-2.93-1.08-.83-2.33-1.23-3.84-1.23-3.66,0-8.49,1.4-14.39,4.16Z"/>
      </g>
    </g>
    <g>
      <g>
        <path class="cls-1" d="M653.41,43.57c-.47.56-1.01.84-1.62.84-.52,0-1.01-.3-1.49-.91-.43-.61-.65-1.26-.65-1.95,0-2.08.71-4.59,2.14-7.53,1.51,3.12,2.27,5.63,2.27,7.53,0,.78-.22,1.45-.65,2.01Z"/>
        <path class="cls-1" d="M651.79,45.06c-.72,0-1.39-.39-2-1.16-.53-.74-.79-1.52-.79-2.35,0-2.17.74-4.8,2.2-7.82l.58-1.2.58,1.2c1.57,3.23,2.33,5.79,2.33,7.82,0,.92-.26,1.73-.78,2.41l-.02.02c-.6.71-1.31,1.07-2.11,1.07ZM651.79,35.56c-.99,2.31-1.5,4.32-1.5,5.99,0,.56.17,1.07.53,1.57.76.96,1.47.75,2.08.03.34-.45.5-.97.5-1.61,0-1.54-.54-3.55-1.62-5.99Z"/>
      </g>
      <g>
        <path class="cls-1" d="M639.75,32.98c-.56-.48-.84-1.02-.84-1.62,0-.52.3-1.02.91-1.49.6-.43,1.25-.65,1.94-.65,2.07,0,4.57.71,7.51,2.14-3.11,1.52-5.61,2.27-7.51,2.27-.78,0-1.45-.22-2.01-.65Z"/>
        <path class="cls-1" d="M641.76,34.28c-.92,0-1.73-.26-2.4-.78l-.02-.02c-.71-.6-1.07-1.32-1.07-2.12,0-.72.39-1.4,1.15-2,.74-.53,1.52-.79,2.34-.79,2.16,0,4.78.74,7.79,2.21l1.19.58-1.19.58c-3.22,1.57-5.77,2.34-7.79,2.34ZM640.16,32.48c.45.34.97.51,1.6.51,1.54,0,3.54-.54,5.97-1.62-2.3-1-4.3-1.5-5.97-1.5-.56,0-1.07.17-1.57.53-.41.33-.64.66-.64.97,0,.41.2.77.6,1.12Z"/>
      </g>
      <g>
        <path class="cls-1" d="M650.3,19.28c.47-.56,1.01-.84,1.62-.84.52,0,1.01.3,1.49.91.43.61.65,1.26.65,1.95,0,2.08-.71,4.59-2.14,7.53-1.51-3.12-2.27-5.63-2.27-7.53,0-.78.22-1.45.65-2.01Z"/>
        <path class="cls-1" d="M651.92,30.3l-.58-1.2c-1.57-3.23-2.33-5.79-2.33-7.82,0-.92.26-1.73.78-2.41l.02-.02c1.14-1.36,2.84-1.53,4.1.08.53.74.79,1.52.79,2.35,0,2.17-.74,4.8-2.2,7.82l-.58,1.2ZM650.8,19.68c-.34.45-.5.97-.5,1.61,0,1.54.54,3.55,1.62,5.99.99-2.31,1.5-4.32,1.5-5.99,0-.56-.17-1.07-.53-1.57-.76-.96-1.47-.75-2.08-.03Z"/>
      </g>
      <g>
        <path class="cls-1" d="M663.96,29.86c.56.48.84,1.02.84,1.62,0,.52-.3,1.02-.91,1.49-.6.43-1.25.65-1.94.65-2.07,0-4.57-.71-7.51-2.14,3.11-1.52,5.61-2.27,7.51-2.27.78,0,1.45.22,2.01.65Z"/>
        <path class="cls-1" d="M661.95,34.28c-2.16,0-4.78-.74-7.79-2.21l-1.19-.58,1.19-.58c3.22-1.57,5.77-2.34,7.79-2.34.92,0,1.73.26,2.4.78l.02.02c.71.6,1.07,1.31,1.07,2.12,0,.72-.39,1.4-1.15,2-.74.53-1.52.79-2.34.79ZM655.98,31.48c2.3,1,4.3,1.5,5.97,1.5.56,0,1.07-.17,1.57-.53.41-.33.64-.66.64-.97,0-.41-.2-.77-.6-1.12-.45-.34-.97-.51-1.6-.51-1.54,0-3.54.54-5.97,1.62Z"/>
      </g>
    </g>
  </g>
</svg>